<svg xmlns="http://www.w3.org/2000/svg" xmlns:xlink="http://www.w3.org/1999/xlink" width="480" zoomAndPan="magnify" viewBox="0 0 360 359.999987" height="480" preserveAspectRatio="xMidYMid meet" version="1.0"><defs><clipPath id="fe2f3e3bad"><path d="M 103.003906 46.574219 L 134.457031 46.574219 L 134.457031 313.429688 L 103.003906 313.429688 Z M 103.003906 46.574219 " clip-rule="nonzero"/></clipPath><clipPath id="cf7493a689"><path d="M 118.730469 46.574219 C 122.902344 46.574219 126.902344 48.230469 129.851562 51.179688 C 132.800781 54.128906 134.457031 58.128906 134.457031 62.300781 L 134.457031 297.699219 C 134.457031 301.871094 132.800781 305.871094 129.851562 308.820312 C 126.902344 311.769531 122.902344 313.425781 118.730469 313.425781 C 114.558594 313.425781 110.558594 311.769531 107.609375 308.820312 C 104.660156 305.871094 103.003906 301.871094 103.003906 297.699219 L 103.003906 62.300781 C 103.003906 58.128906 104.660156 54.128906 107.609375 51.179688 C 110.558594 48.230469 114.558594 46.574219 118.730469 46.574219 Z M 118.730469 46.574219 " clip-rule="nonzero"/></clipPath><clipPath id="03f0cf95e9"><path d="M 0.00390625 0.574219 L 31.457031 0.574219 L 31.457031 267.429688 L 0.00390625 267.429688 Z M 0.00390625 0.574219 " clip-rule="nonzero"/></clipPath><clipPath id="615113e859"><path d="M 15.730469 0.574219 C 19.902344 0.574219 23.902344 2.230469 26.851562 5.179688 C 29.800781 8.128906 31.457031 12.128906 31.457031 16.300781 L 31.457031 251.699219 C 31.457031 255.871094 29.800781 259.871094 26.851562 262.820312 C 23.902344 265.769531 19.902344 267.425781 15.730469 267.425781 C 11.558594 267.425781 7.558594 265.769531 4.609375 262.820312 C 1.660156 259.871094 0.00390625 255.871094 0.00390625 251.699219 L 0.00390625 16.300781 C 0.00390625 12.128906 1.660156 8.128906 4.609375 5.179688 C 7.558594 2.230469 11.558594 0.574219 15.730469 0.574219 Z M 15.730469 0.574219 " clip-rule="nonzero"/></clipPath><clipPath id="937bfa14a3"><rect x="0" width="32" y="0" height="268"/></clipPath><clipPath id="349fea441f"><path d="M 103.003906 46.574219 L 241.960938 46.574219 L 241.960938 123.90625 L 103.003906 123.90625 Z M 103.003906 46.574219 " clip-rule="nonzero"/></clipPath><clipPath id="0a3c8b4501"><path d="M 120.253906 46.574219 L 224.65625 46.574219 C 234.183594 46.574219 241.90625 54.296875 241.90625 63.824219 L 241.90625 106.65625 C 241.90625 116.183594 234.183594 123.90625 224.65625 123.90625 L 120.253906 123.90625 C 110.726562 123.90625 103.003906 116.183594 103.003906 106.65625 L 103.003906 63.824219 C 103.003906 54.296875 110.726562 46.574219 120.253906 46.574219 Z M 120.253906 46.574219 " clip-rule="nonzero"/></clipPath><clipPath id="7f4a2092c9"><path d="M 0.00390625 0.574219 L 138.921875 0.574219 L 138.921875 77.90625 L 0.00390625 77.90625 Z M 0.00390625 0.574219 " clip-rule="nonzero"/></clipPath><clipPath id="ca2967505e"><path d="M 17.253906 0.574219 L 121.65625 0.574219 C 131.183594 0.574219 138.90625 8.296875 138.90625 17.824219 L 138.90625 60.65625 C 138.90625 70.183594 131.183594 77.90625 121.65625 77.90625 L 17.253906 77.90625 C 7.726562 77.90625 0.00390625 70.183594 0.00390625 60.65625 L 0.00390625 17.824219 C 0.00390625 8.296875 7.726562 0.574219 17.253906 0.574219 Z M 17.253906 0.574219 " clip-rule="nonzero"/></clipPath><clipPath id="1c3103f192"><rect x="0" width="139" y="0" height="78"/></clipPath><clipPath id="d559c14b17"><path d="M 153.765625 156.5625 L 257 156.5625 L 257 214.035156 L 153.765625 214.035156 Z M 153.765625 156.5625 " clip-rule="nonzero"/></clipPath><clipPath id="a4f2015d33"><path d="M 171.015625 156.5625 L 239.746094 156.5625 C 249.273438 156.5625 256.996094 164.285156 256.996094 173.8125 L 256.996094 196.785156 C 256.996094 206.308594 249.273438 214.035156 239.746094 214.035156 L 171.015625 214.035156 C 161.488281 214.035156 153.765625 206.308594 153.765625 196.785156 L 153.765625 173.8125 C 153.765625 164.285156 161.488281 156.5625 171.015625 156.5625 Z M 171.015625 156.5625 " clip-rule="nonzero"/></clipPath><clipPath id="3dfd47a859"><path d="M 0.765625 0.5625 L 104 0.5625 L 104 58.035156 L 0.765625 58.035156 Z M 0.765625 0.5625 " clip-rule="nonzero"/></clipPath><clipPath id="6eaa654876"><path d="M 18.015625 0.5625 L 86.746094 0.5625 C 96.273438 0.5625 103.996094 8.285156 103.996094 17.8125 L 103.996094 40.785156 C 103.996094 50.308594 96.273438 58.035156 86.746094 58.035156 L 18.015625 58.035156 C 8.488281 58.035156 0.765625 50.308594 0.765625 40.785156 L 0.765625 17.8125 C 0.765625 8.285156 8.488281 0.5625 18.015625 0.5625 Z M 18.015625 0.5625 " clip-rule="nonzero"/></clipPath><clipPath id="19151cc4c6"><rect x="0" width="104" y="0" height="59"/></clipPath></defs><g clip-path="url(#fe2f3e3bad)"><g clip-path="url(#cf7493a689)"><g transform="matrix(1, 0, 0, 1, 103, 46)"><g clip-path="url(#937bfa14a3)"><g clip-path="url(#03f0cf95e9)"><g clip-path="url(#615113e859)"><path fill="#d97942" d="M 0.00390625 0.574219 L 31.457031 0.574219 L 31.457031 267.429688 L 0.00390625 267.429688 Z M 0.00390625 0.574219 " fill-opacity="1" fill-rule="nonzero"/></g></g></g></g></g></g><g clip-path="url(#349fea441f)"><g clip-path="url(#0a3c8b4501)"><g transform="matrix(1, 0, 0, 1, 103, 46)"><g clip-path="url(#1c3103f192)"><g clip-path="url(#7f4a2092c9)"><g clip-path="url(#ca2967505e)"><path fill="#d97942" d="M 0.00390625 0.574219 L 138.960938 0.574219 L 138.960938 77.90625 L 0.00390625 77.90625 Z M 0.00390625 0.574219 " fill-opacity="1" fill-rule="nonzero"/></g></g></g></g></g></g><g clip-path="url(#d559c14b17)"><g clip-path="url(#a4f2015d33)"><g transform="matrix(1, 0, 0, 1, 153, 156)"><g clip-path="url(#19151cc4c6)"><g clip-path="url(#3dfd47a859)"><g clip-path="url(#6eaa654876)"><path fill="#d97942" d="M 0.765625 0.5625 L 104.039062 0.5625 L 104.039062 58.035156 L 0.765625 58.035156 Z M 0.765625 0.5625 " fill-opacity="1" fill-rule="nonzero"/></g></g></g></g></g></g><path stroke-linecap="butt" transform="matrix(0, -0.75, 0.75, 0, 201.096788, 214.031556)" fill="none" stroke-linejoin="miter" d="M 0.000407887 3.001158 L 76.630622 3.001158 " stroke="#f4ede4" stroke-width="6" stroke-opacity="1" stroke-miterlimit="4"/><path stroke-linecap="butt" transform="matrix(0, -0.75, 0.75, 0, 177.607932, 123.907593)" fill="none" stroke-linejoin="miter" d="M 0.00179123 3.001924 L 103.111174 3.001924 " stroke="#f4ede4" stroke-width="6" stroke-opacity="1" stroke-miterlimit="4"/></svg>